<svg width="118" height="82" viewBox="0 0 118 82" fill="none" xmlns="http://www.w3.org/2000/svg">
<path d="M63.1888 44.8489L45.2563 75.968L27.3239 44.8489H63.1888ZM67.9928 42.0675H22.5005L45.2563 81.4723L67.9928 42.0675Z" fill="#414042"/>
<path d="M94.3665 6.14408L112.299 37.2632H76.434L94.3665 6.14408ZM94.3665 0.581543L71.6106 39.9861H117.122L94.3665 0.581543Z" fill="#414042"/>
<path d="M0.697754 0.581543L19.7778 35.435L40.6276 1.45672L0.697754 0.581543Z" fill="#414042"/>
<path d="M45.257 3.63538L65.2706 38.2944H25.2046L45.257 3.63538Z" fill="#414042"/>
<path d="M70.4245 45.8602L90.4575 81.4724H49.4385L69.802 45.8602H70.4245Z" fill="#414042"/>
<path d="M74.7612 43.7013L94.3663 78.7687L114.244 43.7013H74.7612Z" fill="#414042"/>
</svg>
